<mxfile host="app.diagrams.net" modified="2023-11-20T19:07:34.084Z" agent="Mozilla/5.0 (Windows NT 10.0; Win64; x64) AppleWebKit/537.36 (KHTML, like Gecko) Chrome/118.0.0.0 Safari/537.36" version="22.1.3" etag="8ZN8haZs05K_Xg4IYAXG" type="github">
  <diagram name="Side-1" id="L-QN8cOtptz71tZLl2rf">
    <mxGraphModel>
      <root>
        <mxCell id="0" />
        <mxCell id="1" parent="0" />
      </root>
    </mxGraphModel>
  </diagram>
</mxfile>
